<svg width="98" height="71" viewBox="0 0 98 71" fill="none" xmlns="http://www.w3.org/2000/svg">
<path d="M30.0292 36.3438H22.6613C16.2983 36.3595 11.1438 41.5139 11.1281 47.8769V51.5704C11.1281 52.2679 11.6936 52.8333 12.391 52.8333H40.2946C40.2994 52.8333 40.3042 52.8333 40.3089 52.8333C41.0064 52.8281 41.5676 52.2583 41.5623 51.5609V47.8769C41.5466 41.5139 36.3922 36.3595 30.0292 36.3438ZM39.0365 50.2979H13.654V47.8769C13.6799 42.9131 17.6975 38.8956 22.6613 38.8696H30.0292C34.993 38.8956 39.0105 42.9131 39.0365 47.8769V50.2979Z" fill="#1D396B"/>
<path d="M85.3693 47.6577H51.5323C50.8958 47.6968 50.3885 48.2043 50.3494 48.8406C50.3065 49.5369 50.8362 50.1359 51.5323 50.1788H85.3693C86.0057 50.1397 86.5131 49.6322 86.5521 48.9959C86.595 48.2997 86.0655 47.7006 85.3693 47.6577Z" fill="#1D396B"/>
<path d="M32.2834 32.169L32.3596 32.0975C32.3606 32.0965 32.3615 32.0956 32.3627 32.0944C35.684 28.7715 35.6828 23.3852 32.3596 20.0639C30.7669 18.4645 28.6025 17.5657 26.3452 17.5667C24.1229 17.5657 21.9891 18.4366 20.4023 19.9924L20.326 20.0639C20.3251 20.0649 20.3241 20.0658 20.3229 20.067C17.0017 23.3899 17.0029 28.7762 20.326 32.0975C23.618 35.3961 28.9523 35.4281 32.2834 32.169ZM22.1227 21.8558L22.1847 21.7939C24.5337 19.5292 28.262 19.5566 30.5772 21.8558L30.5915 21.8511C32.9289 24.1901 32.9289 27.9808 30.5915 30.3199L30.5296 30.3818C28.18 32.6572 24.441 32.6317 22.1227 30.3246C19.7854 27.9856 19.7854 24.1949 22.1227 21.8558Z" fill="#1D396B"/>
<path d="M89.3344 0H8.41159C3.77139 0.0131059 0.0131059 3.77139 0 8.41159V61.9884C0.0131059 66.6286 3.77139 70.3869 8.41159 70.4H89.3344C93.9746 70.3869 97.7329 66.6286 97.746 61.9884V8.41159C97.7329 3.77139 93.9746 0.0131059 89.3344 0ZM95.2249 61.9884C95.2144 65.2372 92.5832 67.8684 89.3344 67.8789H8.41159C5.16276 67.8684 2.53158 65.2372 2.52109 61.9884V8.41159C2.53158 5.16276 5.16276 2.53158 8.41159 2.52109H89.3344C92.5832 2.53158 95.2144 5.16276 95.2249 8.41159V61.9884Z" fill="#1D396B"/>
<path d="M85.3693 20.2258H51.5323C50.8958 20.2649 50.3885 20.7725 50.3492 21.4089C50.3063 22.1052 50.836 22.7043 51.5323 22.7469H85.3693C86.0057 22.7078 86.5131 22.2003 86.5524 21.5638C86.595 20.8678 86.0655 20.2687 85.3693 20.2258Z" fill="#1D396B"/>
<path d="M85.3693 33.9419H51.5323C50.8958 33.981 50.3885 34.4885 50.3492 35.125C50.3063 35.8213 50.836 36.4203 51.5323 36.463H85.3693C86.0057 36.4239 86.5131 35.9164 86.5524 35.2799C86.595 34.5838 86.0655 33.9848 85.3693 33.9419Z" fill="#1D396B"/>
<path d="M85.3693 27.084H51.5323C50.8958 27.1231 50.3885 27.6306 50.3492 28.2671C50.3063 28.9634 50.836 29.5624 51.5323 29.6051H85.3693C86.0057 29.566 86.5131 29.0584 86.5524 28.422C86.595 27.7259 86.0655 27.1269 85.3693 27.084Z" fill="#1D396B"/>
<path d="M85.3693 40.7998H51.5323C50.8958 40.8389 50.3885 41.3464 50.3494 41.9827C50.3065 42.6789 50.8362 43.278 51.5323 43.3209H85.3693C86.0057 43.2818 86.5131 42.7743 86.5521 42.138C86.595 41.4418 86.0655 40.8427 85.3693 40.7998Z" fill="#1D396B"/>
</svg>
