<svg width="14" height="10" viewBox="0 0 14 10" fill="none" xmlns="http://www.w3.org/2000/svg">
<path d="M7.74277 5.94091L6.17697 4.8L6.19546 4.78636C7.2681 3.90455 8.03251 2.89091 8.48252 1.81818H10.2887V0.909091H5.97354V0H4.74062V0.909091H0.425415V1.81364H7.31125C6.89823 2.69091 6.24478 3.52273 5.35708 4.25C4.78377 3.78182 4.3091 3.26818 3.93306 2.72727H2.70015C3.15016 3.46818 3.76662 4.16818 4.53719 4.8L1.39942 7.08182L2.27479 7.72727L5.35708 5.45455L7.27427 6.86818L7.74277 5.94091ZM11.2134 3.63636H9.98052L7.20646 9.09091H8.43937L9.12981 7.72727H12.058L12.7546 9.09091H13.9875L11.2134 3.63636ZM9.59831 6.81818L10.597 4.85L11.5956 6.81818H9.59831Z" fill="#979797"/>
</svg>
