<svg width="71" height="71" viewBox="0 0 71 71" fill="none" xmlns="http://www.w3.org/2000/svg">
<path d="M70.387 26.9134C70.3797 26.8325 70.3636 26.7526 70.3389 26.6752C70.3228 26.606 70.3004 26.5385 70.272 26.4734C70.2392 26.4097 70.1999 26.3495 70.1548 26.2938C70.1095 26.2276 70.0571 26.1667 69.9987 26.1118C69.9798 26.0955 69.9717 26.0731 69.9518 26.0567L58.6671 17.2925V8.20923C58.6671 6.26513 57.091 4.689 55.1469 4.689H42.4305L37.339 0.735743C36.0812 -0.245248 34.3174 -0.245248 33.0596 0.735743L27.9669 4.689H15.2506C13.3065 4.689 11.7304 6.26499 11.7304 8.20923V17.2927L0.449243 26.0568C0.429304 26.0733 0.421053 26.0956 0.402352 26.112C0.343911 26.1667 0.29152 26.2278 0.246279 26.2939C0.201176 26.3496 0.161848 26.4097 0.128984 26.4735C0.100519 26.5385 0.0782428 26.6062 0.0621542 26.6754C0.0376775 26.7517 0.021589 26.8303 0.0140259 26.9101C0.0140259 26.9347 0 26.9559 0 26.9805V66.8798C0.00165011 67.6262 0.243116 68.3522 0.688784 68.9508C0.695797 68.9614 0.697035 68.9743 0.705148 68.9837C0.713398 68.993 0.730999 69.0036 0.742688 69.0165C1.40191 69.8839 2.42718 70.3953 3.51666 70.4H66.8809C67.9747 70.3967 69.0042 69.8828 69.6643 69.0107C69.6736 68.9991 69.6878 68.9955 69.6959 68.9838C69.7041 68.9721 69.7052 68.9615 69.7124 68.9509C70.1581 68.3522 70.3995 67.6262 70.4012 66.8799V26.9838C70.401 26.9592 70.3882 26.938 70.387 26.9134ZM34.4946 2.58731C34.9044 2.26168 35.4847 2.26168 35.8945 2.58731L38.6015 4.68886H31.7957L34.4946 2.58731ZM3.81231 68.0533L34.4948 44.22C34.9048 43.895 35.4847 43.895 35.8946 44.22L66.5852 68.0533H3.81231ZM68.0543 66.2238L37.339 42.3683C36.0809 41.3882 34.3176 41.3882 33.0596 42.3683L2.34316 66.2238V28.7709L21.5719 43.7026C22.0843 44.0998 22.8216 44.0066 23.2189 43.4943C23.6161 42.9819 23.5229 42.2446 23.0105 41.8473L3.47555 26.6787L11.7305 20.2636V29.3305C11.7305 29.9786 12.2559 30.5039 12.9039 30.5039C13.552 30.5039 14.0772 29.9785 14.0772 29.3305V8.2091C14.0772 7.56102 14.6025 7.03573 15.2506 7.03573H55.1466C55.7947 7.03573 56.3199 7.56102 56.3199 8.2091V29.3305C56.3199 29.9786 56.8452 30.5039 57.4933 30.5039C58.1414 30.5039 58.6667 29.9785 58.6667 29.3305V20.2636L66.9216 26.6787L47.3527 41.8744C47.0161 42.1295 46.8424 42.5459 46.8982 42.9646C46.9541 43.3833 47.2306 43.7397 47.6223 43.8977C48.0141 44.0557 48.4606 43.9911 48.7913 43.7283L68.054 28.7709V66.2238H68.0543Z" fill="#1D396B"/>
<path d="M49.2796 28.1571V23.4635C49.2796 15.6868 42.9754 9.38257 35.1987 9.38257C27.422 9.38257 21.1177 15.6868 21.1177 23.4635C21.1177 31.2402 27.422 37.5445 35.1987 37.5445C35.8468 37.5445 36.372 37.0192 36.372 36.3711C36.372 35.723 35.8468 35.1977 35.1987 35.1977C28.7181 35.1977 23.4646 29.9442 23.4646 23.4637C23.4646 16.9831 28.7181 11.7296 35.1987 11.7296C41.6792 11.7296 46.9328 16.9831 46.9328 23.4637V28.1573C46.9328 29.4534 45.8821 30.5041 44.5859 30.5041C43.2897 30.5041 42.239 29.4534 42.239 28.1573V23.4637C42.239 22.8156 41.7137 22.2903 41.0657 22.2903C40.4176 22.2903 39.8923 22.8156 39.8923 23.4637C39.8923 26.0558 37.7909 28.1573 35.1987 28.1573C32.6065 28.1573 30.5051 26.0558 30.5051 23.4637C30.5051 20.8715 32.6065 18.7701 35.1987 18.7701C35.8468 18.7701 36.372 18.2448 36.372 17.5967C36.372 16.9486 35.8468 16.4233 35.1987 16.4233C32.0477 16.4163 29.2756 18.5038 28.4121 21.5343C27.5485 24.5647 28.8035 27.7999 31.485 29.4549C34.1664 31.11 37.6209 30.7819 39.9428 28.6515C40.1982 31.133 42.3551 32.9781 44.8462 32.8462C47.3375 32.7142 49.2875 30.6518 49.2796 28.1571Z" fill="#1D396B"/>
</svg>
