<svg width="178" height="113" viewBox="0 0 178 113" fill="none" xmlns="http://www.w3.org/2000/svg">
<path d="M34.3775 14.9802L0 37.9766L33.8663 88.6036L68.2438 65.6073L34.3775 14.9802Z" fill="#F5F5F5"/>
<path d="M50.4773 63.2103L50.0873 65.6303L32.9973 63.1603L33.3873 60.7503L50.4773 63.2103Z" fill="#E0E0E0"/>
<path d="M41.8773 54.6003L44.3273 54.9503L41.6073 71.7803L39.1573 71.4303L41.8773 54.6003Z" fill="#E0E0E0"/>
<path d="M26.1273 33.2103C26.1273 33.2103 22.7073 35.5903 18.4373 38.4503C14.1673 41.3103 10.6773 43.6003 10.6473 43.5603C10.6173 43.5203 14.0673 41.1803 18.3473 38.3203C22.6273 35.4603 26.1073 33.1703 26.1273 33.2103Z" fill="#E0E0E0"/>
<path d="M38.7772 30.0303C38.7772 30.0303 33.0672 33.9503 25.9972 38.6903C18.9272 43.4303 13.1372 47.2503 13.1072 47.2103C13.0772 47.1703 18.7972 43.3303 25.8872 38.5603C32.9772 33.7903 38.7472 30.0003 38.7772 30.0303Z" fill="#E0E0E0"/>
<path d="M41.3073 33.8203C41.3073 33.8203 35.6073 37.7403 28.5072 42.4803C21.4072 47.2203 15.6472 51.0403 15.6272 51.0003C15.6072 50.9603 21.3273 47.0903 28.4272 42.3503C35.5273 37.6103 41.2873 33.7903 41.3073 33.8203Z" fill="#E0E0E0"/>
<path d="M43.8472 37.6103C43.8472 37.6103 38.1373 41.5303 31.0473 46.2703C23.9573 51.0103 18.1873 54.8303 18.1573 54.7903C18.1273 54.7503 23.8673 50.8803 30.9573 46.1403C38.0473 41.4003 43.8172 37.5803 43.8472 37.6103Z" fill="#E0E0E0"/>
<path d="M46.3773 41.4003C46.3773 41.4003 40.6673 45.3303 33.5773 50.0603C26.4873 54.7903 20.7173 58.6203 20.6973 58.5803C20.6773 58.5403 26.3973 54.6703 33.4873 49.9303C40.5773 45.1903 46.3573 41.3303 46.3773 41.4003Z" fill="#E0E0E0"/>
<path d="M149.352 48.9112L120.477 68.2268L148.917 110.742L177.792 91.426L149.352 48.9112Z" fill="#F5F5F5"/>
<path d="M162.867 89.4203L162.547 91.4503L148.187 89.3803L148.517 87.3503L162.867 89.4203Z" fill="#E0E0E0"/>
<path d="M155.647 82.1803L157.707 82.4803L155.417 96.6103L153.357 96.3203L155.647 82.1803Z" fill="#E0E0E0"/>
<path d="M142.417 64.2203C142.417 64.2203 139.557 66.2203 135.967 68.6303C132.377 71.0403 129.447 72.9503 129.417 72.9203C129.387 72.8903 132.287 70.9203 135.877 68.5003C139.467 66.0803 142.397 64.1803 142.417 64.2203Z" fill="#E0E0E0"/>
<path d="M152.997 61.5503C152.997 61.5503 148.217 64.8503 142.257 68.8303C136.297 72.8103 131.457 76.0203 131.427 75.9803C131.397 75.9403 136.217 72.6903 142.167 68.7003C148.117 64.7103 152.997 61.5203 152.997 61.5503Z" fill="#E0E0E0"/>
<path d="M155.167 64.7403C155.167 64.7403 150.387 68.0303 144.427 72.0203C138.467 76.0103 133.627 79.2003 133.597 79.1603C133.567 79.1203 138.387 75.8703 144.337 71.8803C150.287 67.8903 155.147 64.7003 155.167 64.7403Z" fill="#E0E0E0"/>
<path d="M157.297 67.9203C157.297 67.9203 152.517 71.2203 146.557 75.2003C140.597 79.1803 135.757 82.3803 135.727 82.3503C135.697 82.3203 140.507 79.0503 146.467 75.0703C152.427 71.0903 157.277 67.8803 157.297 67.9203Z" fill="#E0E0E0"/>
<path d="M159.427 71.1003C159.427 71.1003 154.637 74.4003 148.687 78.3803C142.737 82.3603 137.877 85.5603 137.857 85.5303C137.837 85.5003 142.637 82.2303 148.597 78.2503C154.557 74.2703 159.397 71.0703 159.427 71.1003Z" fill="#E0E0E0"/>
<path d="M103.673 16.8513L72.166 0L47.3537 46.3914L78.8604 63.2426L103.673 16.8513Z" fill="#F5F5F5"/>
<path d="M73.4673 48.7203L71.4673 49.4103L66.3873 35.3803L68.3873 34.6903L73.4673 48.7203Z" fill="#E0E0E0"/>
<path d="M76.5273 38.6603L77.2573 40.6703L63.3273 45.4403L62.5973 43.4303L76.5273 38.6603Z" fill="#E0E0E0"/>
<path d="M86.4272 17.9603C86.4272 18.0103 83.2073 16.3503 79.2873 14.2503C75.3672 12.1503 72.2172 10.4203 72.2372 10.3803C72.2572 10.3403 75.4572 11.9903 79.3772 14.0903C83.2972 16.1903 86.4472 17.9203 86.4272 17.9603Z" fill="#E0E0E0"/>
<path d="M93.9973 26.3303C93.9973 26.3303 88.6873 23.5903 82.1873 20.1203C75.6873 16.6503 70.4373 13.7903 70.4573 13.7403C70.4773 13.6903 75.7773 16.4803 82.2773 19.9503C88.7773 23.4203 93.9973 26.2603 93.9973 26.3303Z" fill="#E0E0E0"/>
<path d="M92.1272 29.7803C92.1272 29.7803 86.8172 27.0503 80.3172 23.5703C73.8172 20.0903 68.5672 17.2403 68.5972 17.1903C68.6272 17.1403 73.9072 19.9303 80.4072 23.4003C86.9072 26.8703 92.1572 29.7303 92.1272 29.7803Z" fill="#E0E0E0"/>
<path d="M90.2672 33.2503C90.2672 33.2503 84.9972 30.5203 78.4572 27.0403C71.9172 23.5603 66.7172 20.7103 66.7372 20.6703C66.7572 20.6303 72.0472 23.4003 78.5472 26.8803C85.0472 30.3603 90.2972 33.2103 90.2672 33.2503Z" fill="#E0E0E0"/>
<path d="M88.4173 36.7303C88.4173 36.7303 83.0973 33.9903 76.6073 30.5203C70.1173 27.0503 64.8573 24.1903 64.8773 24.1403C64.8973 24.0903 70.1973 26.8703 76.6973 30.3303C83.1973 33.7903 88.4373 36.6803 88.4173 36.7303Z" fill="#E0E0E0"/>
<path d="M58.6072 49.3903L47.7772 105.1L46.3572 112.39L118.697 112.03C121.937 112.03 124.817 109.13 125.867 104.85L138.687 52.2603C139.477 49.0103 137.737 45.6203 135.277 45.6303L62.0672 45.7003C60.4472 45.7103 58.9972 47.2103 58.6072 49.3903Z" fill="#5C5553"/>
<g opacity="0.5">
<path opacity="0.5" d="M58.6072 49.3903L47.7772 105.1L46.3572 112.39L118.697 112.03C121.937 112.03 124.817 109.13 125.867 104.85L138.687 52.2603C139.477 49.0103 137.737 45.6203 135.277 45.6303L62.0672 45.7003C60.4472 45.7103 58.9972 47.2103 58.6072 49.3903Z" fill="#9D9D9D"/>
</g>
<path d="M111.757 101.33L104.097 39.6003C103.985 38.4181 103.444 37.3178 102.577 36.5072C101.709 35.6966 100.574 35.2317 99.3872 35.2003L82.5972 35.2503C81.9731 35.2573 81.3568 35.3912 80.7861 35.6439C80.2153 35.8966 79.7019 36.2629 79.2772 36.7203L71.2772 45.2003L24.5672 45.4403C23.8706 45.4783 23.1896 45.6617 22.5681 45.9786C21.9465 46.2956 21.3982 46.7391 20.9583 47.2807C20.5185 47.8223 20.1969 48.4499 20.0141 49.1232C19.8314 49.7966 19.7916 50.5007 19.8972 51.1903L26.9972 108.24C27.109 109.421 27.6485 110.52 28.5142 111.33C29.3798 112.141 30.5119 112.607 31.6972 112.64L113.097 112.48C122.167 112.67 123.027 109.99 123.027 109.99C112.677 112.33 111.757 101.33 111.757 101.33Z" fill="#9D9D9D"/>
<g opacity="0.5">
<path opacity="0.5" d="M76.6573 88.9703L73.9073 91.9203L52.7673 72.9003L55.5073 69.9503L76.6573 88.9703Z" fill="white"/>
<path opacity="0.5" d="M72.7573 69.3003L75.7973 72.0203L56.6573 92.5703L53.6273 89.8403L72.7573 69.3003Z" fill="white"/>
</g>
</svg>
