<svg width="87" height="71" viewBox="0 0 87 71" fill="none" xmlns="http://www.w3.org/2000/svg">
<path d="M85.6708 67.7691L78.2745 64.2024C81.1105 60.928 82.6743 56.7427 82.6801 52.4108C82.6925 48.475 81.4019 44.6458 79.0096 41.5204C76.9185 38.7852 74.0922 36.7016 70.8608 35.5131C71.0032 34.2895 71.0748 33.0588 71.0753 31.827C71.0753 14.2772 56.7981 0 39.2483 0C21.6985 0 7.42128 14.2772 7.42128 31.827C7.43261 40.0147 10.5888 47.8851 16.2377 53.8119L1.2842 61.0231C1.00142 61.1591 0.773232 61.3871 0.637077 61.6698C0.500921 61.9525 0.464878 62.273 0.534858 62.5789C0.604838 62.8848 0.776687 63.1578 1.02222 63.3531C1.26775 63.5485 1.57238 63.6546 1.88614 63.6541H39.2483C42.719 63.6574 46.1667 63.0906 49.4537 61.9762C51.0723 64.5558 53.3196 66.682 55.9847 68.1554C58.6499 69.6288 61.6456 70.4012 64.6909 70.4H85.0706C85.3842 70.4001 85.6886 70.2937 85.9338 70.0983C86.179 69.9028 86.3506 69.6298 86.4203 69.324C86.4901 69.0182 86.4539 68.6979 86.3177 68.4154C86.1815 68.1328 85.9534 67.905 85.6708 67.7691ZM39.2483 60.8865H7.9402L19.2111 55.4517C19.4142 55.3534 19.5902 55.2069 19.7237 55.025C19.8573 54.8432 19.9444 54.6315 19.9775 54.4083C20.0106 54.1851 19.9886 53.9572 19.9135 53.7444C19.8384 53.5317 19.7125 53.3405 19.5467 53.1875C16.6005 50.463 14.2485 47.1595 12.6383 43.484C11.0281 39.8084 10.1942 35.8399 10.1888 31.827C10.1888 15.8028 23.2241 2.76757 39.2483 2.76757C55.2725 2.76757 68.3078 15.8028 68.3078 31.827C68.3078 47.8512 55.2725 60.8865 39.2483 60.8865ZM64.6909 67.6324C62.2035 67.6335 59.7538 67.0245 57.5563 65.859C55.3588 64.6935 53.4807 63.0069 52.0864 60.947C56.717 58.8959 60.7936 55.7731 63.9798 51.8363C67.166 47.8994 69.3704 43.2614 70.4111 38.3049C72.788 39.2687 74.8828 40.8176 76.501 42.8076C78.1192 44.7976 79.2083 47.1643 79.6671 49.6878C80.126 52.2113 79.9397 54.8099 79.1256 57.2422C78.3115 59.6745 76.896 61.8616 75.0105 63.6004C74.8445 63.7534 74.7184 63.9447 74.6433 64.1576C74.5682 64.3705 74.5463 64.5986 74.5796 64.8219C74.6129 65.0451 74.7003 65.2569 74.8342 65.4387C74.968 65.6204 75.1444 65.7667 75.3478 65.8646L79.0148 67.6324H64.6909Z" fill="#1D396B"/>
<path d="M55.8537 24.9082H22.6429C22.2759 24.9082 21.9239 25.054 21.6644 25.3135C21.4049 25.573 21.2591 25.925 21.2591 26.292C21.2591 26.659 21.4049 27.011 21.6644 27.2705C21.9239 27.53 22.2759 27.6758 22.6429 27.6758H55.8537C56.2207 27.6758 56.5727 27.53 56.8322 27.2705C57.0917 27.011 57.2375 26.659 57.2375 26.292C57.2375 25.925 57.0917 25.573 56.8322 25.3135C56.5727 25.054 56.2207 24.9082 55.8537 24.9082Z" fill="#1D396B"/>
<path d="M55.8537 30.4434H22.6429C22.2759 30.4434 21.9239 30.5891 21.6644 30.8487C21.4049 31.1082 21.2591 31.4601 21.2591 31.8271C21.2591 32.1941 21.4049 32.5461 21.6644 32.8056C21.9239 33.0651 22.2759 33.2109 22.6429 33.2109H55.8537C56.2207 33.2109 56.5727 33.0651 56.8322 32.8056C57.0917 32.5461 57.2375 32.1941 57.2375 31.8271C57.2375 31.4601 57.0917 31.1082 56.8322 30.8487C56.5727 30.5891 56.2207 30.4434 55.8537 30.4434Z" fill="#1D396B"/>
<path d="M44.6104 35.9783H22.4699C22.1029 35.9783 21.7509 36.1241 21.4914 36.3836C21.2319 36.6431 21.0861 36.9951 21.0861 37.3621C21.0861 37.7291 21.2319 38.081 21.4914 38.3405C21.7509 38.6 22.1029 38.7458 22.4699 38.7458H44.6104C44.9774 38.7458 45.3294 38.6 45.5889 38.3405C45.8484 38.081 45.9942 37.7291 45.9942 37.3621C45.9942 36.9951 45.8484 36.6431 45.5889 36.3836C45.3294 36.1241 44.9774 35.9783 44.6104 35.9783Z" fill="#1D396B"/>
<path d="M50.1456 35.9783H48.7618C48.3948 35.9783 48.0429 36.1241 47.7834 36.3836C47.5238 36.6431 47.3781 36.9951 47.3781 37.3621C47.3781 37.7291 47.5238 38.081 47.7834 38.3405C48.0429 38.6 48.3948 38.7458 48.7618 38.7458H50.1456C50.5126 38.7458 50.8646 38.6 51.1241 38.3405C51.3836 38.081 51.5294 37.7291 51.5294 37.3621C51.5294 36.9951 51.3836 36.6431 51.1241 36.3836C50.8646 36.1241 50.5126 35.9783 50.1456 35.9783Z" fill="#1D396B"/>
</svg>
