<svg width="234" height="40" viewBox="0 0 234 40" fill="none" xmlns="http://www.w3.org/2000/svg">
<path d="M232.838 6.25899C232.189 3.81162 230.284 1.88249 227.87 1.22347C223.458 0 205.811 0 205.811 0C205.811 0 188.164 0 183.752 1.17683C181.384 1.83542 179.433 3.81206 178.783 6.25899C177.622 10.7292 177.622 20 177.622 20C177.622 20 177.622 29.3174 178.783 33.741C179.434 36.1879 181.337 38.1175 183.753 38.7765C188.21 40 205.811 40 205.811 40C205.811 40 223.458 40 227.87 38.8232C230.285 38.1646 232.189 36.235 232.839 33.7881C234 29.3174 234 20.0471 234 20.0471C234 20.0471 234.046 10.7292 232.838 6.25899Z" fill="#FF0000"/>
<path d="M200.192 28.5648L214.867 20L200.192 11.4353V28.5648Z" fill="white"/>
<path d="M120.994 2.77708C117.902 6.03206 118.535 9.48975 118.535 19.9941C118.535 28.7172 117.033 37.462 124.894 39.5206C127.348 40.1603 149.097 40.1603 151.548 39.5173C154.821 38.6616 157.484 35.9716 157.848 31.281C157.899 30.6264 157.899 9.37344 157.846 8.7055C157.459 3.70921 154.424 0.82974 150.425 0.246535C149.508 0.11195 149.325 0.0720723 144.622 0.0637645C127.942 0.0720723 124.285 -0.680611 120.994 2.77708Z" fill="url(#paint0_linear)"/>
<path d="M138.208 5.27959C132.254 5.27959 126.601 4.74291 124.441 10.359C123.549 12.6785 123.679 15.6909 123.679 20.0043C123.679 23.7893 123.559 27.3467 124.441 29.6479C126.596 35.2673 132.295 34.7289 138.205 34.7289C143.906 34.7289 149.784 35.3304 151.97 29.6479C152.863 27.3051 152.732 24.3376 152.732 20.0043C152.732 14.252 153.045 10.5384 150.292 7.75032C147.505 4.92568 143.735 5.27959 138.201 5.27959H138.208ZM136.906 7.93309C149.325 7.91315 150.905 6.51413 150.033 25.9493C149.723 32.8231 144.558 32.0688 138.209 32.0688C126.633 32.0688 126.3 31.7332 126.3 19.9976C126.3 8.12583 127.219 7.93974 136.906 7.92977V7.93309ZM145.964 10.3772C145.001 10.3772 144.221 11.1681 144.221 12.1435C144.221 13.1188 145.001 13.9097 145.964 13.9097C146.926 13.9097 147.706 13.1188 147.706 12.1435C147.706 11.1681 146.926 10.3772 145.964 10.3772ZM138.208 12.4425C134.087 12.4425 130.747 15.8288 130.747 20.0043C130.747 24.1797 134.087 27.5643 138.208 27.5643C142.328 27.5643 145.667 24.1797 145.667 20.0043C145.667 15.8288 142.328 12.4425 138.208 12.4425ZM138.208 15.096C144.611 15.096 144.619 24.9125 138.208 24.9125C131.807 24.9125 131.797 15.096 138.208 15.096Z" fill="white"/>
<path d="M0 0V40H21.022V24.5488H15.8831V18.2412H21.022V12.944C21.022 9.09144 24.1039 5.96836 27.9058 5.96836H33.2781V11.6403H29.4339C28.2259 11.6403 27.2465 12.6327 27.2465 13.8569V18.2413H33.1815L32.3613 24.5489H27.2465V40H39.4734V0H0Z" fill="#3A559F"/>
<path d="M98.6835 0H59.2101V40H98.6835V0Z" fill="#50ABF1"/>
<path d="M64.4397 29.6511C67.0667 31.3394 70.183 32.3165 73.5235 32.3165C82.9082 32.3165 90.5157 24.6066 90.5157 15.0976C90.5157 14.8601 90.5108 14.6245 90.5018 14.3895C90.8412 14.1188 92.9406 12.4137 93.4552 11.3175C93.4552 11.3175 91.7504 12.0355 90.0818 12.2046C90.0785 12.2046 90.0744 12.2054 90.0711 12.2054C90.0711 12.2054 90.0744 12.2038 90.0801 12.1996C90.2339 12.0955 92.3833 10.6128 92.6744 8.84616C92.6744 8.84616 91.4685 9.49839 89.7801 10.069C89.5006 10.1631 89.208 10.2556 88.9063 10.3413C87.818 9.16433 86.2711 8.42969 84.5539 8.42969C81.2602 8.42969 78.5912 11.1335 78.5912 14.4686C78.5912 14.9392 78.6446 15.3973 78.7457 15.8371C78.2854 15.818 71.2763 15.4198 66.5079 9.56825C66.5079 9.56825 63.6581 13.5107 68.2062 17.5646C68.2062 17.5646 66.8236 17.5088 65.6308 16.7866C65.6308 16.7866 65.1927 21.5628 70.3433 22.7839C70.3433 22.7839 69.3298 23.1729 67.713 22.8956C67.713 22.8956 68.6172 26.7547 73.1932 27.1154C73.1932 27.1154 69.5747 30.4278 64.438 29.6506L64.4397 29.6511Z" fill="white"/>
<defs>
<linearGradient id="paint0_linear" x1="121.07" y1="37.394" x2="158.058" y2="5.8027" gradientUnits="userSpaceOnUse">
<stop stop-color="#FFDD55"/>
<stop offset="0.5" stop-color="#FF543E"/>
<stop offset="1" stop-color="#C837AB"/>
</linearGradient>
</defs>
</svg>
