<svg width="71" height="71" viewBox="0 0 71 71" fill="none" xmlns="http://www.w3.org/2000/svg">
<path d="M59.8433 0H10.5606C4.73083 0.00630246 0.00630243 4.73083 0 10.5606V48.1093C0.00630243 53.939 4.73083 58.6636 10.5606 58.6699H13.521L9.47026 68.795C9.29321 69.2436 9.40838 69.7541 9.76017 70.0836C10.112 70.413 10.6299 70.4932 11.0653 70.2864L35.4718 58.6699H59.8433C65.673 58.6636 70.3975 53.939 70.4038 48.1093V10.5606C70.3975 4.73083 65.673 0.00630246 59.8433 0ZM68.057 48.1093C68.0519 52.6436 64.3776 56.3179 59.8433 56.3231H35.2019C35.0272 56.3242 34.8547 56.3643 34.6972 56.4405L12.7641 66.8837L16.3445 57.9342C16.4894 57.5721 16.4459 57.1619 16.2276 56.8387C16.0087 56.5162 15.6443 56.3225 15.2542 56.3231H10.5606C6.02627 56.3179 2.35195 52.6436 2.34679 48.1093V10.5606C2.35195 6.02627 6.02627 2.35195 10.5606 2.34679H59.8433C64.3776 2.35195 68.0519 6.02627 68.057 10.5606V48.1093Z" fill="#1D396B"/>
<path d="M53.2584 21.1212H42.8749C42.3666 21.1212 41.9163 20.7946 41.7587 20.3116L38.5508 10.4351C38.0804 8.98326 36.7283 7.99951 35.2019 7.99951C33.6756 7.99951 32.3234 8.98326 31.8531 10.4351L28.6451 20.3116C28.4876 20.7946 28.0372 21.1212 27.529 21.1212H17.1455C15.6203 21.1206 14.2687 22.1026 13.7972 23.5533C13.3256 25.0035 13.8419 26.5928 15.076 27.4889L23.476 33.5908C23.8885 33.8893 24.061 34.4199 23.9034 34.904L20.6943 44.7793C20.2228 46.23 20.739 47.8188 21.9731 48.7155C23.2067 49.6116 24.878 49.6116 26.1115 48.7149L34.5121 42.613C34.9235 42.3139 35.4804 42.3139 35.8918 42.613L44.2923 48.7149C45.5207 49.6282 47.2023 49.6282 48.4307 48.7149C49.6786 47.8286 50.1983 46.2295 49.7095 44.7793L46.5005 34.9029C46.3435 34.4193 46.5159 33.8893 46.9279 33.5908L55.3279 27.4889C56.562 26.5928 57.0782 25.0035 56.6067 23.5533C56.1352 22.1026 54.7836 21.1206 53.2584 21.1212ZM53.9482 25.5919L45.5477 31.6932C44.3118 32.5876 43.7944 34.1781 44.2688 35.6276L47.4768 45.503C47.6355 45.9871 47.4647 46.5177 47.0534 46.8179C46.642 47.1175 46.0839 47.1181 45.672 46.8185L37.272 40.7171C36.0384 39.817 34.3654 39.817 33.1319 40.7171L24.7319 46.8185C24.3205 47.117 23.7636 47.1164 23.3522 46.8173C22.9414 46.5182 22.7695 45.9888 22.9271 45.5053L26.135 35.6316C26.6094 34.1809 26.0926 32.5904 24.8562 31.6961L16.4556 25.5942C16.0414 25.2962 15.8667 24.7645 16.0242 24.2793C16.1818 23.794 16.6356 23.4657 17.1455 23.468H27.529C29.0553 23.4714 30.4086 22.4876 30.8767 21.0352L34.0858 11.1605C34.2445 10.6786 34.6937 10.3532 35.2008 10.3532C35.7078 10.3532 36.157 10.6786 36.3157 11.1605L39.5248 21.0369C39.9941 22.4894 41.3479 23.4725 42.8749 23.468H53.2584C53.7672 23.4674 54.2186 23.7945 54.3762 24.2787C54.5332 24.7628 54.3607 25.2934 53.9482 25.5919Z" fill="#1D396B"/>
</svg>
